<svg xmlns="http://www.w3.org/2000/svg" width="15" height="15"><g opacity=".54"><circle cx="7.5" cy="7.5" r="7.3" fill="#040000"/><path fill="#fff" d="M7.5.5c3.9 0 7 3.1 7 7s-3.1 7-7 7-7-3.1-7-7 3.1-7 7-7m0-.5C3.4 0 0 3.4 0 7.5S3.4 15 7.5 15 15 11.6 15 7.5 11.6 0 7.5 0"/></g><path fill="#fff" fill-rule="evenodd" d="M10.2 5.3c.5.7.8 1.4.8 2.2C11 9.4 9.4 11 7.5 11S4 9.4 4 7.5 5.6 4 7.5 4v.5c-1.6 0-3 1.3-3 3s1.3 3 3 3 3-1.3 3-3q0-1.05-.6-1.8l-.1-.1c-.1-.1-.1-.3 0-.4s.3-.1.4.1c0-.1 0 0 0 0" clip-rule="evenodd"/><path fill="#fff" fill-rule="evenodd" d="M7.5 2.9c0-.1.1-.1.1-.1L9 4.3 7.6 5.7c0 .1-.1.1-.1 0z" clip-rule="evenodd"/></svg>