<svg xmlns="http://www.w3.org/2000/svg" width="30" height="16" fill="none" data-cy="Item_mall_badge_pdp"><path fill="#D0011B" fill-rule="evenodd" d="M0 2a2 2 0 0 1 2-2h26a2 2 0 0 1 2 2v12a2 2 0 0 1-2 2H2a2 2 0 0 1-2-2z" clip-rule="evenodd"/><path fill="#fff" fill-rule="evenodd" d="M11.805 3.001h-.938a.18.18 0 0 0-.14.069l-.576.632q-.06.06-.111.12l-.03.033-.274.3c-.47.478-1.183 1.004-2.23 1.015h-.032c-1.118 0-1.857-.635-2.292-1.086l-.928-1.016A.18.18 0 0 0 4.115 3h-.936A.18.18 0 0 0 3 3.178v9.642a.18.18 0 0 0 .178.178h.937a.18.18 0 0 0 .178-.178V5.007q.336.29.696.55c.59.439 1.415.849 2.488.849h.04a4.2 4.2 0 0 0 2.374-.764H9.9l.071-.056q.12-.087.227-.175l.492-.38v7.789a.18.18 0 0 0 .178.178h.937a.18.18 0 0 0 .178-.178V3.18a.18.18 0 0 0-.178-.18m7.546 3.747h-.936a.18.18 0 0 0-.178.178v.591c-.566-.48-1.341-.81-2.15-.81-1.78 0-3.223 1.41-3.223 3.144s1.443 3.144 3.223 3.144a3.4 3.4 0 0 0 2.15-.794v.618a.18.18 0 0 0 .178.18h.937a.18.18 0 0 0 .178-.178V6.929a.18.18 0 0 0-.18-.18m-3.206 5.09c-1.152 0-2.086-.889-2.086-1.984s.934-1.983 2.086-1.983c1.153 0 2.088.888 2.088 1.983s-.935 1.984-2.088 1.984m7.606.182a.177.177 0 0 0-.129-.214l-.419-.105-.011-.003c-.642-.133-.875-.344-.905-.929V3.18a.18.18 0 0 0-.178-.176h-.865a.177.177 0 0 0-.178.176v7.268c-.058 1.704.916 2.24 1.82 2.44l.431.108a.18.18 0 0 0 .216-.128l.099-.378.008-.031.003-.011zm3.22-.134c.024.04.03.089.02.134l-.108.427-.011.042-.098.378a.18.18 0 0 1-.217.128l-.431-.109c-.904-.2-1.878-.735-1.82-2.439V3.18a.177.177 0 0 1 .178-.176h.865a.177.177 0 0 1 .178.176v7.59c.03.585.264.796.905.929l.012.002.419.106c.045.011.084.04.108.08" clip-rule="evenodd"/></svg>