<svg xmlns="http://www.w3.org/2000/svg" width="16" height="16" fill="none" viewBox="0 0 16 16"><path fill="#26AA99" fill-rule="evenodd" d="M1.167 3.333a.5.5 0 0 0-.5.5V11.5a.5.5 0 0 0 .5.5h1.626A1.708 1.708 0 0 0 6.2 12h4.375a1.708 1.708 0 0 0 3.407 0h1.149a.5.5 0 0 0 .468-.675l-2.145-5.723a.5.5 0 0 0-.468-.324h-2.82V3.833a.5.5 0 0 0-.5-.5zM13.746 11h.663l-1.77-4.722h-2.472V11h.645a1.707 1.707 0 0 1 2.934 0m-9.25-.833c-.623 0-1.169.334-1.467.833H1.667V4.333h7.5V11H5.964a1.71 1.71 0 0 0-1.467-.833m0 1a.708.708 0 1 0 0 1.415.708.708 0 0 0 0-1.415m7.075.707a.708.708 0 1 1 1.416.001.708.708 0 0 1-1.416 0" clip-rule="evenodd"/></svg>